<svg width="203" height="66" viewBox="0 0 203 66" fill="none" xmlns="http://www.w3.org/2000/svg">
<g id="Logo">
<path id="Vector" d="M128.303 26.4H74.6968C73.4428 26.4 72.4263 27.4165 72.4263 28.6703V37.3296C72.4263 38.5835 73.4428 39.5999 74.6968 39.5999H128.303C129.557 39.5999 130.573 38.5835 130.573 37.3296V28.6703C130.573 27.4165 129.557 26.4 128.303 26.4Z" fill="#C91B0E"/>
<path id="Vector_2" d="M128.303 52.7998H74.6968C73.4428 52.7998 72.4263 53.8162 72.4263 55.0701V63.7294C72.4263 64.9832 73.4428 65.9997 74.6968 65.9997H128.303C129.557 65.9997 130.573 64.9832 130.573 63.7294V55.0701C130.573 53.8162 129.557 52.7998 128.303 52.7998Z" fill="#C91B0E"/>
<path id="Vector_3" d="M128.303 0H74.6968C73.4428 0 72.4263 1.01643 72.4263 2.27027V10.9296C72.4263 12.1834 73.4428 13.1999 74.6968 13.1999H128.303C129.557 13.1999 130.573 12.1834 130.573 10.9296V2.27027C130.573 1.01643 129.557 0 128.303 0Z" fill="#C91B0E"/>
<path id="Vector_4" d="M169.504 5.74766e-09H144.723C144.722 -1.11953e-06 144.722 0.000162996 144.721 0.000482751C144.72 0.000802506 144.719 0.00127137 144.719 0.00185997C144.718 0.00244856 144.718 0.00314447 144.718 0.00390611C144.717 0.00466776 144.717 0.0054784 144.717 0.00628913V37.3297C144.717 37.6278 144.776 37.923 144.89 38.1985C145.004 38.4739 145.171 38.7242 145.382 38.935C145.593 39.1458 145.843 39.313 146.119 39.4271C146.394 39.5412 146.689 39.5999 146.988 39.5999H156.59C157.193 39.5999 157.77 39.3608 158.196 38.935C158.622 38.5092 158.861 37.9318 158.861 37.3297V13.2065C158.861 13.2048 158.862 13.2032 158.863 13.202C158.864 13.2009 158.866 13.2002 158.867 13.2002H168.625C179.489 13.2002 188.692 22.085 188.72 32.9483C188.734 38.4373 186.516 43.4039 182.921 47.0013C179.336 50.5843 174.388 52.7998 168.919 52.7998H146.988C146.385 52.7999 145.808 53.0392 145.382 53.465C144.956 53.8908 144.717 54.4683 144.717 55.0704V65.9937C144.717 65.9945 144.717 65.9953 144.718 65.9961C144.718 65.9969 144.718 65.9976 144.719 65.9981C144.719 65.9987 144.72 65.9992 144.721 65.9995C144.722 65.9998 144.722 66 144.723 66H169.862C188.127 65.9994 202.927 51.1623 202.864 32.8841C202.801 14.644 187.743 5.74766e-09 169.504 5.74766e-09Z" fill="#C91B0E"/>
<path id="Vector_5" d="M58.2008 65.8585L58.2826 66H43.0422C43.0411 66 43.04 65.9997 43.0391 65.9992C43.0381 65.9986 43.0374 65.9978 43.0369 65.9969L27.7996 39.6031C27.7991 39.6021 27.7983 39.6013 27.7974 39.6008C27.7964 39.6002 27.7953 39.5999 27.7942 39.5999H14.2852C14.2844 39.5999 14.2835 39.6001 14.2828 39.6004C14.282 39.6007 14.2813 39.6012 14.2807 39.6018C14.2802 39.6024 14.2797 39.6031 14.2794 39.6038C14.2791 39.6046 14.2789 39.6054 14.2789 39.6062V65.9937C14.2789 65.9954 14.2782 65.997 14.2771 65.9982C14.2759 65.9993 14.2743 66 14.2726 66H0.141779C0.140166 65.9999 0.138646 65.9992 0.137534 65.9981C0.136421 65.9969 0.135801 65.9953 0.135803 65.9937V28.67C0.135803 28.0679 0.375009 27.4905 0.800798 27.0647C1.22659 26.6389 1.80408 26.3998 2.40623 26.3998H38.3325C41.9631 26.3998 45.0264 23.531 45.0808 19.9012C45.0944 19.0261 44.9336 18.157 44.608 17.3445C44.2824 16.532 43.7985 15.7925 43.1843 15.1688C42.5701 14.5452 41.838 14.0499 41.0306 13.7119C40.2231 13.3739 39.3565 13.1998 38.4812 13.1999H2.40623C1.80405 13.1998 1.22656 12.9605 0.800779 12.5347C0.374999 12.1089 0.135803 11.5314 0.135803 10.9293V0.00628912C0.135801 0.00467408 0.136421 0.00312012 0.137534 0.00194922C0.138646 0.000778306 0.140166 8.07512e-05 0.141779 0H38.1708C49.172 0 58.3031 8.83703 58.2826 19.8377C58.265 29.2782 51.6368 37.1746 42.7774 39.1329C42.7764 39.1331 42.7755 39.1336 42.7748 39.1342C42.774 39.1348 42.7735 39.1356 42.7731 39.1365C42.7727 39.1374 42.7726 39.1384 42.7727 39.1393C42.7728 39.1403 42.7731 39.1412 42.7736 39.1421L58.2008 65.8585Z" fill="#C91B0E"/>
</g>
</svg>
